<mxfile host="app.diagrams.net" modified="2024-07-08T22:50:55.561Z" agent="Mozilla/5.0 (Windows NT 10.0; Win64; x64; rv:127.0) Gecko/20100101 Firefox/127.0" etag="1jmtcQER25jzdxZyz8SP" version="24.6.4" type="google">
  <diagram name="PÃ¡gina-1" id="vEffVQwyNaGdyPD0nnIE">
    <mxGraphModel grid="1" page="1" gridSize="10" guides="1" tooltips="1" connect="1" arrows="1" fold="1" pageScale="1" pageWidth="827" pageHeight="1169" math="0" shadow="0">
      <root>
        <mxCell id="0" />
        <mxCell id="1" parent="0" />
        <mxCell id="uW9ZdSilZdgCNZQ97aXZ-1" value="&lt;i&gt;BUGFIX&lt;/i&gt;" style="rounded=0;whiteSpace=wrap;html=1;fillColor=#fad9d5;strokeColor=#ae4132;dashed=1;" vertex="1" parent="1">
          <mxGeometry x="40" y="280" width="120" height="40" as="geometry" />
        </mxCell>
        <mxCell id="uW9ZdSilZdgCNZQ97aXZ-2" value="&lt;i&gt;HOTFIX&lt;/i&gt;" style="rounded=0;whiteSpace=wrap;html=1;fillColor=#fad9d5;strokeColor=#ae4132;dashed=1;" vertex="1" parent="1">
          <mxGeometry x="40" y="120" width="120" height="40" as="geometry" />
        </mxCell>
        <mxCell id="uW9ZdSilZdgCNZQ97aXZ-3" value="TESTING" style="rounded=0;whiteSpace=wrap;html=1;fillColor=#fad7ac;strokeColor=#b46504;" vertex="1" parent="1">
          <mxGeometry x="40" y="200" width="120" height="40" as="geometry" />
        </mxCell>
        <mxCell id="uW9ZdSilZdgCNZQ97aXZ-4" value="MAIN" style="rounded=0;whiteSpace=wrap;html=1;fillColor=#d5e8d4;strokeColor=#82b366;" vertex="1" parent="1">
          <mxGeometry x="40" y="40" width="120" height="40" as="geometry" />
        </mxCell>
        <mxCell id="uW9ZdSilZdgCNZQ97aXZ-5" value="DEVELOP" style="rounded=0;whiteSpace=wrap;html=1;fillColor=#d0cee2;strokeColor=#56517e;" vertex="1" parent="1">
          <mxGeometry x="40" y="360" width="120" height="40" as="geometry" />
        </mxCell>
        <mxCell id="uW9ZdSilZdgCNZQ97aXZ-6" value="&lt;i&gt;FEATURE 1&lt;/i&gt;" style="rounded=0;whiteSpace=wrap;html=1;fillColor=#b1ddf0;strokeColor=#0066CC;dashed=1;" vertex="1" parent="1">
          <mxGeometry x="40" y="440" width="120" height="40" as="geometry" />
        </mxCell>
        <mxCell id="uW9ZdSilZdgCNZQ97aXZ-7" value="&lt;i&gt;FEATURE 2&lt;/i&gt;" style="rounded=0;whiteSpace=wrap;html=1;fillColor=#b1ddf0;strokeColor=#0066CC;dashed=1;" vertex="1" parent="1">
          <mxGeometry x="40" y="520" width="120" height="40" as="geometry" />
        </mxCell>
        <mxCell id="uW9ZdSilZdgCNZQ97aXZ-8" value="" style="endArrow=classic;html=1;rounded=0;endFill=1;fillColor=#d5e8d4;strokeColor=#82b366;" edge="1" parent="1" source="uW9ZdSilZdgCNZQ97aXZ-62">
          <mxGeometry width="50" height="50" relative="1" as="geometry">
            <mxPoint x="200" y="60" as="sourcePoint" />
            <mxPoint x="800" y="60" as="targetPoint" />
          </mxGeometry>
        </mxCell>
        <mxCell id="uW9ZdSilZdgCNZQ97aXZ-9" value="" style="endArrow=classic;html=1;rounded=0;fillColor=#fad7ac;strokeColor=#b46504;" edge="1" parent="1" source="uW9ZdSilZdgCNZQ97aXZ-69">
          <mxGeometry width="50" height="50" relative="1" as="geometry">
            <mxPoint x="200" y="220" as="sourcePoint" />
            <mxPoint x="800" y="220" as="targetPoint" />
          </mxGeometry>
        </mxCell>
        <mxCell id="uW9ZdSilZdgCNZQ97aXZ-10" value="" style="endArrow=classic;html=1;rounded=0;fillColor=#d0cee2;strokeColor=#56517e;" edge="1" parent="1" source="uW9ZdSilZdgCNZQ97aXZ-72">
          <mxGeometry width="50" height="50" relative="1" as="geometry">
            <mxPoint x="200" y="380" as="sourcePoint" />
            <mxPoint x="800" y="380" as="targetPoint" />
          </mxGeometry>
        </mxCell>
        <mxCell id="uW9ZdSilZdgCNZQ97aXZ-12" value="" style="endArrow=classic;html=1;rounded=0;endFill=1;fillColor=#d5e8d4;strokeColor=#82b366;" edge="1" parent="1" target="uW9ZdSilZdgCNZQ97aXZ-11">
          <mxGeometry width="50" height="50" relative="1" as="geometry">
            <mxPoint x="200" y="60" as="sourcePoint" />
            <mxPoint x="800" y="60" as="targetPoint" />
          </mxGeometry>
        </mxCell>
        <mxCell id="uW9ZdSilZdgCNZQ97aXZ-41" style="edgeStyle=orthogonalEdgeStyle;rounded=0;orthogonalLoop=1;jettySize=auto;html=1;entryX=0.5;entryY=0;entryDx=0;entryDy=0;fillColor=#fad7ac;strokeColor=#b46504;" edge="1" parent="1" source="uW9ZdSilZdgCNZQ97aXZ-11" target="uW9ZdSilZdgCNZQ97aXZ-15">
          <mxGeometry relative="1" as="geometry" />
        </mxCell>
        <mxCell id="uW9ZdSilZdgCNZQ97aXZ-11" value="" style="ellipse;whiteSpace=wrap;html=1;aspect=fixed;fillColor=#d5e8d4;strokeColor=#82b366;" vertex="1" parent="1">
          <mxGeometry x="230" y="55" width="10" height="10" as="geometry" />
        </mxCell>
        <mxCell id="uW9ZdSilZdgCNZQ97aXZ-16" value="" style="endArrow=classic;html=1;rounded=0;fillColor=#fad7ac;strokeColor=#b46504;" edge="1" parent="1" target="uW9ZdSilZdgCNZQ97aXZ-15">
          <mxGeometry width="50" height="50" relative="1" as="geometry">
            <mxPoint x="200" y="220" as="sourcePoint" />
            <mxPoint x="800" y="220" as="targetPoint" />
          </mxGeometry>
        </mxCell>
        <mxCell id="uW9ZdSilZdgCNZQ97aXZ-40" style="edgeStyle=orthogonalEdgeStyle;rounded=0;orthogonalLoop=1;jettySize=auto;html=1;entryX=0.5;entryY=0;entryDx=0;entryDy=0;fillColor=#d0cee2;strokeColor=#56517e;" edge="1" parent="1" source="uW9ZdSilZdgCNZQ97aXZ-15" target="uW9ZdSilZdgCNZQ97aXZ-17">
          <mxGeometry relative="1" as="geometry" />
        </mxCell>
        <mxCell id="uW9ZdSilZdgCNZQ97aXZ-15" value="" style="ellipse;whiteSpace=wrap;html=1;aspect=fixed;fillColor=#ffe6cc;strokeColor=#d79b00;" vertex="1" parent="1">
          <mxGeometry x="230" y="215" width="10" height="10" as="geometry" />
        </mxCell>
        <mxCell id="uW9ZdSilZdgCNZQ97aXZ-18" value="" style="endArrow=classic;html=1;rounded=0;fillColor=#d0cee2;strokeColor=#56517e;" edge="1" parent="1" target="uW9ZdSilZdgCNZQ97aXZ-17">
          <mxGeometry width="50" height="50" relative="1" as="geometry">
            <mxPoint x="200" y="380" as="sourcePoint" />
            <mxPoint x="800" y="380" as="targetPoint" />
          </mxGeometry>
        </mxCell>
        <mxCell id="uW9ZdSilZdgCNZQ97aXZ-17" value="" style="ellipse;whiteSpace=wrap;html=1;aspect=fixed;fillColor=#e1d5e7;strokeColor=#9673a6;" vertex="1" parent="1">
          <mxGeometry x="230" y="375" width="10" height="10" as="geometry" />
        </mxCell>
        <mxCell id="uW9ZdSilZdgCNZQ97aXZ-20" value="" style="endArrow=classic;html=1;rounded=0;fillColor=#d0cee2;strokeColor=#56517e;" edge="1" parent="1" source="uW9ZdSilZdgCNZQ97aXZ-17" target="uW9ZdSilZdgCNZQ97aXZ-19">
          <mxGeometry width="50" height="50" relative="1" as="geometry">
            <mxPoint x="240" y="380" as="sourcePoint" />
            <mxPoint x="800" y="380" as="targetPoint" />
          </mxGeometry>
        </mxCell>
        <mxCell id="uW9ZdSilZdgCNZQ97aXZ-32" value="" style="edgeStyle=orthogonalEdgeStyle;rounded=0;orthogonalLoop=1;jettySize=auto;html=1;fillColor=#b1ddf0;strokeColor=#10739e;dashed=1;" edge="1" parent="1" source="uW9ZdSilZdgCNZQ97aXZ-19" target="uW9ZdSilZdgCNZQ97aXZ-28">
          <mxGeometry relative="1" as="geometry" />
        </mxCell>
        <mxCell id="uW9ZdSilZdgCNZQ97aXZ-19" value="" style="ellipse;whiteSpace=wrap;html=1;aspect=fixed;fillColor=#e1d5e7;strokeColor=#9673a6;" vertex="1" parent="1">
          <mxGeometry x="280" y="375" width="10" height="10" as="geometry" />
        </mxCell>
        <mxCell id="uW9ZdSilZdgCNZQ97aXZ-22" value="" style="endArrow=classic;html=1;rounded=0;fillColor=#d0cee2;strokeColor=#56517e;" edge="1" parent="1" source="uW9ZdSilZdgCNZQ97aXZ-23" target="uW9ZdSilZdgCNZQ97aXZ-21">
          <mxGeometry width="50" height="50" relative="1" as="geometry">
            <mxPoint x="290" y="380" as="sourcePoint" />
            <mxPoint x="800" y="380" as="targetPoint" />
          </mxGeometry>
        </mxCell>
        <mxCell id="uW9ZdSilZdgCNZQ97aXZ-21" value="" style="ellipse;whiteSpace=wrap;html=1;aspect=fixed;fillColor=#e1d5e7;strokeColor=#9673a6;" vertex="1" parent="1">
          <mxGeometry x="460" y="375" width="10" height="10" as="geometry" />
        </mxCell>
        <mxCell id="uW9ZdSilZdgCNZQ97aXZ-24" value="" style="endArrow=classic;html=1;rounded=0;fillColor=#d0cee2;strokeColor=#56517e;" edge="1" parent="1" source="uW9ZdSilZdgCNZQ97aXZ-19" target="uW9ZdSilZdgCNZQ97aXZ-23">
          <mxGeometry width="50" height="50" relative="1" as="geometry">
            <mxPoint x="290" y="380" as="sourcePoint" />
            <mxPoint x="460" y="380" as="targetPoint" />
          </mxGeometry>
        </mxCell>
        <mxCell id="uW9ZdSilZdgCNZQ97aXZ-36" style="edgeStyle=orthogonalEdgeStyle;rounded=0;orthogonalLoop=1;jettySize=auto;html=1;entryX=0.5;entryY=0;entryDx=0;entryDy=0;fillColor=#b1ddf0;strokeColor=#10739e;dashed=1;" edge="1" parent="1" source="uW9ZdSilZdgCNZQ97aXZ-23" target="uW9ZdSilZdgCNZQ97aXZ-29">
          <mxGeometry relative="1" as="geometry" />
        </mxCell>
        <mxCell id="uW9ZdSilZdgCNZQ97aXZ-23" value="" style="ellipse;whiteSpace=wrap;html=1;aspect=fixed;fillColor=#e1d5e7;strokeColor=#9673a6;" vertex="1" parent="1">
          <mxGeometry x="340" y="375" width="10" height="10" as="geometry" />
        </mxCell>
        <mxCell id="uW9ZdSilZdgCNZQ97aXZ-26" value="" style="endArrow=classic;html=1;rounded=0;fillColor=#d0cee2;strokeColor=#56517e;" edge="1" parent="1" source="uW9ZdSilZdgCNZQ97aXZ-21" target="uW9ZdSilZdgCNZQ97aXZ-25">
          <mxGeometry width="50" height="50" relative="1" as="geometry">
            <mxPoint x="470" y="380" as="sourcePoint" />
            <mxPoint x="800" y="380" as="targetPoint" />
          </mxGeometry>
        </mxCell>
        <mxCell id="uW9ZdSilZdgCNZQ97aXZ-44" style="edgeStyle=orthogonalEdgeStyle;rounded=0;orthogonalLoop=1;jettySize=auto;html=1;entryX=0.5;entryY=1;entryDx=0;entryDy=0;fillColor=#d0cee2;strokeColor=#56517e;" edge="1" parent="1" source="uW9ZdSilZdgCNZQ97aXZ-25" target="uW9ZdSilZdgCNZQ97aXZ-42">
          <mxGeometry relative="1" as="geometry" />
        </mxCell>
        <mxCell id="uW9ZdSilZdgCNZQ97aXZ-25" value="" style="ellipse;whiteSpace=wrap;html=1;aspect=fixed;fillColor=#e1d5e7;strokeColor=#9673a6;" vertex="1" parent="1">
          <mxGeometry x="510" y="375" width="10" height="10" as="geometry" />
        </mxCell>
        <mxCell id="uW9ZdSilZdgCNZQ97aXZ-33" style="edgeStyle=orthogonalEdgeStyle;rounded=0;orthogonalLoop=1;jettySize=auto;html=1;entryX=0;entryY=0.5;entryDx=0;entryDy=0;fillColor=#b1ddf0;strokeColor=#10739e;dashed=1;" edge="1" parent="1" source="uW9ZdSilZdgCNZQ97aXZ-28" target="uW9ZdSilZdgCNZQ97aXZ-30">
          <mxGeometry relative="1" as="geometry" />
        </mxCell>
        <mxCell id="uW9ZdSilZdgCNZQ97aXZ-28" value="" style="ellipse;whiteSpace=wrap;html=1;aspect=fixed;fillColor=#b1ddf0;strokeColor=#10739e;dashed=1;" vertex="1" parent="1">
          <mxGeometry x="280" y="455" width="10" height="10" as="geometry" />
        </mxCell>
        <mxCell id="uW9ZdSilZdgCNZQ97aXZ-38" style="edgeStyle=orthogonalEdgeStyle;rounded=0;orthogonalLoop=1;jettySize=auto;html=1;entryX=0;entryY=0.5;entryDx=0;entryDy=0;fillColor=#b1ddf0;strokeColor=#10739e;dashed=1;" edge="1" parent="1" source="uW9ZdSilZdgCNZQ97aXZ-29" target="uW9ZdSilZdgCNZQ97aXZ-31">
          <mxGeometry relative="1" as="geometry" />
        </mxCell>
        <mxCell id="uW9ZdSilZdgCNZQ97aXZ-29" value="" style="ellipse;whiteSpace=wrap;html=1;aspect=fixed;fillColor=#b1ddf0;strokeColor=#10739e;dashed=1;" vertex="1" parent="1">
          <mxGeometry x="340" y="535" width="10" height="10" as="geometry" />
        </mxCell>
        <mxCell id="uW9ZdSilZdgCNZQ97aXZ-35" style="edgeStyle=orthogonalEdgeStyle;rounded=0;orthogonalLoop=1;jettySize=auto;html=1;entryX=0.5;entryY=1;entryDx=0;entryDy=0;fillColor=#b1ddf0;strokeColor=#10739e;dashed=1;" edge="1" parent="1" source="uW9ZdSilZdgCNZQ97aXZ-30" target="uW9ZdSilZdgCNZQ97aXZ-21">
          <mxGeometry relative="1" as="geometry" />
        </mxCell>
        <mxCell id="d04jcUyvBnx4OKBwQaZm-4" style="edgeStyle=orthogonalEdgeStyle;rounded=0;orthogonalLoop=1;jettySize=auto;html=1;dashed=1;fillColor=#b1ddf0;strokeColor=#10739e;" edge="1" parent="1" source="uW9ZdSilZdgCNZQ97aXZ-30">
          <mxGeometry relative="1" as="geometry">
            <mxPoint x="800" y="460" as="targetPoint" />
          </mxGeometry>
        </mxCell>
        <mxCell id="uW9ZdSilZdgCNZQ97aXZ-30" value="" style="ellipse;whiteSpace=wrap;html=1;aspect=fixed;fillColor=#b1ddf0;strokeColor=#10739e;dashed=1;" vertex="1" parent="1">
          <mxGeometry x="460" y="455" width="10" height="10" as="geometry" />
        </mxCell>
        <mxCell id="uW9ZdSilZdgCNZQ97aXZ-39" style="edgeStyle=orthogonalEdgeStyle;rounded=0;orthogonalLoop=1;jettySize=auto;html=1;entryX=0.5;entryY=1;entryDx=0;entryDy=0;fillColor=#b1ddf0;strokeColor=#10739e;dashed=1;" edge="1" parent="1" source="uW9ZdSilZdgCNZQ97aXZ-31" target="uW9ZdSilZdgCNZQ97aXZ-25">
          <mxGeometry relative="1" as="geometry" />
        </mxCell>
        <mxCell id="uW9ZdSilZdgCNZQ97aXZ-31" value="" style="ellipse;whiteSpace=wrap;html=1;aspect=fixed;fillColor=#b1ddf0;strokeColor=#10739e;dashed=1;" vertex="1" parent="1">
          <mxGeometry x="510" y="535" width="10" height="10" as="geometry" />
        </mxCell>
        <mxCell id="uW9ZdSilZdgCNZQ97aXZ-43" value="" style="endArrow=classic;html=1;rounded=0;fillColor=#fad7ac;strokeColor=#b46504;" edge="1" parent="1" source="uW9ZdSilZdgCNZQ97aXZ-15" target="uW9ZdSilZdgCNZQ97aXZ-42">
          <mxGeometry width="50" height="50" relative="1" as="geometry">
            <mxPoint x="240" y="220" as="sourcePoint" />
            <mxPoint x="800" y="220" as="targetPoint" />
          </mxGeometry>
        </mxCell>
        <mxCell id="uW9ZdSilZdgCNZQ97aXZ-42" value="" style="ellipse;whiteSpace=wrap;html=1;aspect=fixed;fillColor=#ffe6cc;strokeColor=#d79b00;" vertex="1" parent="1">
          <mxGeometry x="510" y="215" width="10" height="10" as="geometry" />
        </mxCell>
        <mxCell id="uW9ZdSilZdgCNZQ97aXZ-46" value="" style="endArrow=classic;html=1;rounded=0;fillColor=#fad7ac;strokeColor=#b46504;" edge="1" parent="1" source="uW9ZdSilZdgCNZQ97aXZ-42" target="uW9ZdSilZdgCNZQ97aXZ-45">
          <mxGeometry width="50" height="50" relative="1" as="geometry">
            <mxPoint x="520" y="220" as="sourcePoint" />
            <mxPoint x="800" y="220" as="targetPoint" />
          </mxGeometry>
        </mxCell>
        <mxCell id="uW9ZdSilZdgCNZQ97aXZ-51" style="edgeStyle=orthogonalEdgeStyle;rounded=0;orthogonalLoop=1;jettySize=auto;html=1;entryX=0.5;entryY=0;entryDx=0;entryDy=0;fillColor=#fad9d5;strokeColor=#ae4132;dashed=1;" edge="1" parent="1" source="uW9ZdSilZdgCNZQ97aXZ-45" target="uW9ZdSilZdgCNZQ97aXZ-49">
          <mxGeometry relative="1" as="geometry" />
        </mxCell>
        <mxCell id="uW9ZdSilZdgCNZQ97aXZ-45" value="" style="ellipse;whiteSpace=wrap;html=1;aspect=fixed;fillColor=#ffe6cc;strokeColor=#d79b00;" vertex="1" parent="1">
          <mxGeometry x="550" y="215" width="10" height="10" as="geometry" />
        </mxCell>
        <mxCell id="uW9ZdSilZdgCNZQ97aXZ-48" value="" style="endArrow=classic;html=1;rounded=0;fillColor=#fad7ac;strokeColor=#b46504;" edge="1" parent="1" source="uW9ZdSilZdgCNZQ97aXZ-45" target="uW9ZdSilZdgCNZQ97aXZ-47">
          <mxGeometry width="50" height="50" relative="1" as="geometry">
            <mxPoint x="560" y="220" as="sourcePoint" />
            <mxPoint x="800" y="220" as="targetPoint" />
          </mxGeometry>
        </mxCell>
        <mxCell id="uW9ZdSilZdgCNZQ97aXZ-59" style="edgeStyle=orthogonalEdgeStyle;rounded=0;orthogonalLoop=1;jettySize=auto;html=1;entryX=0.5;entryY=1;entryDx=0;entryDy=0;fillColor=#ffe6cc;strokeColor=#d79b00;" edge="1" parent="1" source="uW9ZdSilZdgCNZQ97aXZ-47" target="uW9ZdSilZdgCNZQ97aXZ-57">
          <mxGeometry relative="1" as="geometry" />
        </mxCell>
        <mxCell id="uW9ZdSilZdgCNZQ97aXZ-47" value="" style="ellipse;whiteSpace=wrap;html=1;aspect=fixed;fillColor=#ffe6cc;strokeColor=#d79b00;" vertex="1" parent="1">
          <mxGeometry x="620" y="215" width="10" height="10" as="geometry" />
        </mxCell>
        <mxCell id="uW9ZdSilZdgCNZQ97aXZ-52" style="edgeStyle=orthogonalEdgeStyle;rounded=0;orthogonalLoop=1;jettySize=auto;html=1;entryX=0;entryY=0.5;entryDx=0;entryDy=0;fillColor=#fad9d5;strokeColor=#ae4132;dashed=1;" edge="1" parent="1" source="uW9ZdSilZdgCNZQ97aXZ-49" target="uW9ZdSilZdgCNZQ97aXZ-50">
          <mxGeometry relative="1" as="geometry" />
        </mxCell>
        <mxCell id="d04jcUyvBnx4OKBwQaZm-5" style="edgeStyle=orthogonalEdgeStyle;rounded=0;orthogonalLoop=1;jettySize=auto;html=1;exitX=0;exitY=0.5;exitDx=0;exitDy=0;endArrow=none;endFill=0;dashed=1;fillColor=#fad9d5;strokeColor=#ae4132;" edge="1" parent="1" source="uW9ZdSilZdgCNZQ97aXZ-49">
          <mxGeometry relative="1" as="geometry">
            <mxPoint x="200" y="300" as="targetPoint" />
          </mxGeometry>
        </mxCell>
        <mxCell id="uW9ZdSilZdgCNZQ97aXZ-49" value="" style="ellipse;whiteSpace=wrap;html=1;aspect=fixed;fillColor=#fad9d5;strokeColor=#ae4132;dashed=1;" vertex="1" parent="1">
          <mxGeometry x="550" y="295" width="10" height="10" as="geometry" />
        </mxCell>
        <mxCell id="uW9ZdSilZdgCNZQ97aXZ-53" style="edgeStyle=orthogonalEdgeStyle;rounded=0;orthogonalLoop=1;jettySize=auto;html=1;entryX=0.5;entryY=1;entryDx=0;entryDy=0;fillColor=#fad9d5;strokeColor=#ae4132;dashed=1;" edge="1" parent="1" source="uW9ZdSilZdgCNZQ97aXZ-50" target="uW9ZdSilZdgCNZQ97aXZ-47">
          <mxGeometry relative="1" as="geometry" />
        </mxCell>
        <mxCell id="uW9ZdSilZdgCNZQ97aXZ-56" style="edgeStyle=orthogonalEdgeStyle;rounded=0;orthogonalLoop=1;jettySize=auto;html=1;entryX=0.5;entryY=0;entryDx=0;entryDy=0;fillColor=#fad9d5;strokeColor=#ae4132;dashed=1;" edge="1" parent="1" source="uW9ZdSilZdgCNZQ97aXZ-50" target="uW9ZdSilZdgCNZQ97aXZ-54">
          <mxGeometry relative="1" as="geometry" />
        </mxCell>
        <mxCell id="d04jcUyvBnx4OKBwQaZm-6" style="edgeStyle=orthogonalEdgeStyle;rounded=0;orthogonalLoop=1;jettySize=auto;html=1;dashed=1;fillColor=#fad9d5;strokeColor=#ae4132;" edge="1" parent="1" source="uW9ZdSilZdgCNZQ97aXZ-50">
          <mxGeometry relative="1" as="geometry">
            <mxPoint x="800" y="300" as="targetPoint" />
          </mxGeometry>
        </mxCell>
        <mxCell id="uW9ZdSilZdgCNZQ97aXZ-50" value="" style="ellipse;whiteSpace=wrap;html=1;aspect=fixed;fillColor=#fad9d5;strokeColor=#ae4132;dashed=1;" vertex="1" parent="1">
          <mxGeometry x="620" y="295" width="10" height="10" as="geometry" />
        </mxCell>
        <mxCell id="uW9ZdSilZdgCNZQ97aXZ-55" value="" style="endArrow=classic;html=1;rounded=0;fillColor=#d0cee2;strokeColor=#56517e;" edge="1" parent="1" source="uW9ZdSilZdgCNZQ97aXZ-25" target="uW9ZdSilZdgCNZQ97aXZ-54">
          <mxGeometry width="50" height="50" relative="1" as="geometry">
            <mxPoint x="520" y="380" as="sourcePoint" />
            <mxPoint x="800" y="380" as="targetPoint" />
          </mxGeometry>
        </mxCell>
        <mxCell id="uW9ZdSilZdgCNZQ97aXZ-54" value="" style="ellipse;whiteSpace=wrap;html=1;aspect=fixed;fillColor=#e1d5e7;strokeColor=#9673a6;" vertex="1" parent="1">
          <mxGeometry x="620" y="375" width="10" height="10" as="geometry" />
        </mxCell>
        <mxCell id="uW9ZdSilZdgCNZQ97aXZ-58" value="" style="endArrow=classic;html=1;rounded=0;endFill=1;fillColor=#d5e8d4;strokeColor=#82b366;" edge="1" parent="1" source="uW9ZdSilZdgCNZQ97aXZ-11" target="uW9ZdSilZdgCNZQ97aXZ-57">
          <mxGeometry width="50" height="50" relative="1" as="geometry">
            <mxPoint x="240" y="60" as="sourcePoint" />
            <mxPoint x="800" y="60" as="targetPoint" />
          </mxGeometry>
        </mxCell>
        <mxCell id="uW9ZdSilZdgCNZQ97aXZ-57" value="" style="ellipse;whiteSpace=wrap;html=1;aspect=fixed;fillColor=#d5e8d4;strokeColor=#82b366;" vertex="1" parent="1">
          <mxGeometry x="620" y="55" width="10" height="10" as="geometry" />
        </mxCell>
        <mxCell id="uW9ZdSilZdgCNZQ97aXZ-61" value="" style="endArrow=classic;html=1;rounded=0;endFill=1;fillColor=#d5e8d4;strokeColor=#82b366;" edge="1" parent="1" source="uW9ZdSilZdgCNZQ97aXZ-57" target="uW9ZdSilZdgCNZQ97aXZ-60">
          <mxGeometry width="50" height="50" relative="1" as="geometry">
            <mxPoint x="630" y="60" as="sourcePoint" />
            <mxPoint x="800" y="60" as="targetPoint" />
          </mxGeometry>
        </mxCell>
        <mxCell id="uW9ZdSilZdgCNZQ97aXZ-66" style="edgeStyle=orthogonalEdgeStyle;rounded=0;orthogonalLoop=1;jettySize=auto;html=1;entryX=0.5;entryY=0;entryDx=0;entryDy=0;fillColor=#fad9d5;strokeColor=#ae4132;dashed=1;" edge="1" parent="1" source="uW9ZdSilZdgCNZQ97aXZ-60" target="uW9ZdSilZdgCNZQ97aXZ-64">
          <mxGeometry relative="1" as="geometry" />
        </mxCell>
        <mxCell id="uW9ZdSilZdgCNZQ97aXZ-60" value="" style="ellipse;whiteSpace=wrap;html=1;aspect=fixed;fillColor=#d5e8d4;strokeColor=#82b366;" vertex="1" parent="1">
          <mxGeometry x="650" y="55" width="10" height="10" as="geometry" />
        </mxCell>
        <mxCell id="uW9ZdSilZdgCNZQ97aXZ-63" value="" style="endArrow=classic;html=1;rounded=0;endFill=1;fillColor=#d5e8d4;strokeColor=#82b366;" edge="1" parent="1" source="uW9ZdSilZdgCNZQ97aXZ-60" target="uW9ZdSilZdgCNZQ97aXZ-62">
          <mxGeometry width="50" height="50" relative="1" as="geometry">
            <mxPoint x="660" y="60" as="sourcePoint" />
            <mxPoint x="800" y="60" as="targetPoint" />
          </mxGeometry>
        </mxCell>
        <mxCell id="uW9ZdSilZdgCNZQ97aXZ-62" value="" style="ellipse;whiteSpace=wrap;html=1;aspect=fixed;fillColor=#d5e8d4;strokeColor=#82b366;" vertex="1" parent="1">
          <mxGeometry x="710" y="55" width="10" height="10" as="geometry" />
        </mxCell>
        <mxCell id="uW9ZdSilZdgCNZQ97aXZ-67" style="edgeStyle=orthogonalEdgeStyle;rounded=0;orthogonalLoop=1;jettySize=auto;html=1;entryX=0;entryY=0.5;entryDx=0;entryDy=0;fillColor=#fad9d5;strokeColor=#ae4132;dashed=1;" edge="1" parent="1" source="uW9ZdSilZdgCNZQ97aXZ-64" target="uW9ZdSilZdgCNZQ97aXZ-65">
          <mxGeometry relative="1" as="geometry" />
        </mxCell>
        <mxCell id="d04jcUyvBnx4OKBwQaZm-8" style="edgeStyle=orthogonalEdgeStyle;rounded=0;orthogonalLoop=1;jettySize=auto;html=1;exitX=0;exitY=0.5;exitDx=0;exitDy=0;dashed=1;fillColor=#fad9d5;strokeColor=#ae4132;endArrow=none;endFill=0;" edge="1" parent="1" source="uW9ZdSilZdgCNZQ97aXZ-64">
          <mxGeometry relative="1" as="geometry">
            <mxPoint x="200" y="140" as="targetPoint" />
          </mxGeometry>
        </mxCell>
        <mxCell id="uW9ZdSilZdgCNZQ97aXZ-64" value="" style="ellipse;whiteSpace=wrap;html=1;aspect=fixed;fillColor=#fad9d5;strokeColor=#ae4132;dashed=1;" vertex="1" parent="1">
          <mxGeometry x="650" y="135" width="10" height="10" as="geometry" />
        </mxCell>
        <mxCell id="uW9ZdSilZdgCNZQ97aXZ-68" style="edgeStyle=orthogonalEdgeStyle;rounded=0;orthogonalLoop=1;jettySize=auto;html=1;entryX=0.5;entryY=1;entryDx=0;entryDy=0;fillColor=#fad9d5;strokeColor=#ae4132;dashed=1;" edge="1" parent="1" source="uW9ZdSilZdgCNZQ97aXZ-65" target="uW9ZdSilZdgCNZQ97aXZ-62">
          <mxGeometry relative="1" as="geometry" />
        </mxCell>
        <mxCell id="uW9ZdSilZdgCNZQ97aXZ-71" style="edgeStyle=orthogonalEdgeStyle;rounded=0;orthogonalLoop=1;jettySize=auto;html=1;entryX=0.5;entryY=0;entryDx=0;entryDy=0;fillColor=#fad9d5;strokeColor=#ae4132;dashed=1;" edge="1" parent="1" source="uW9ZdSilZdgCNZQ97aXZ-65" target="uW9ZdSilZdgCNZQ97aXZ-69">
          <mxGeometry relative="1" as="geometry" />
        </mxCell>
        <mxCell id="d04jcUyvBnx4OKBwQaZm-7" style="edgeStyle=orthogonalEdgeStyle;rounded=0;orthogonalLoop=1;jettySize=auto;html=1;dashed=1;fillColor=#fad9d5;strokeColor=#ae4132;" edge="1" parent="1" source="uW9ZdSilZdgCNZQ97aXZ-65">
          <mxGeometry relative="1" as="geometry">
            <mxPoint x="800" y="140" as="targetPoint" />
          </mxGeometry>
        </mxCell>
        <mxCell id="uW9ZdSilZdgCNZQ97aXZ-65" value="" style="ellipse;whiteSpace=wrap;html=1;aspect=fixed;fillColor=#fad9d5;strokeColor=#ae4132;dashed=1;" vertex="1" parent="1">
          <mxGeometry x="710" y="135" width="10" height="10" as="geometry" />
        </mxCell>
        <mxCell id="uW9ZdSilZdgCNZQ97aXZ-70" value="" style="endArrow=classic;html=1;rounded=0;fillColor=#fad7ac;strokeColor=#b46504;" edge="1" parent="1" source="uW9ZdSilZdgCNZQ97aXZ-47" target="uW9ZdSilZdgCNZQ97aXZ-69">
          <mxGeometry width="50" height="50" relative="1" as="geometry">
            <mxPoint x="630" y="220" as="sourcePoint" />
            <mxPoint x="800" y="220" as="targetPoint" />
          </mxGeometry>
        </mxCell>
        <mxCell id="uW9ZdSilZdgCNZQ97aXZ-74" style="edgeStyle=orthogonalEdgeStyle;rounded=0;orthogonalLoop=1;jettySize=auto;html=1;entryX=0.5;entryY=0;entryDx=0;entryDy=0;fillColor=#fad9d5;strokeColor=#ae4132;dashed=1;" edge="1" parent="1" source="uW9ZdSilZdgCNZQ97aXZ-69" target="uW9ZdSilZdgCNZQ97aXZ-72">
          <mxGeometry relative="1" as="geometry" />
        </mxCell>
        <mxCell id="uW9ZdSilZdgCNZQ97aXZ-69" value="" style="ellipse;whiteSpace=wrap;html=1;aspect=fixed;fillColor=#ffe6cc;strokeColor=#d79b00;" vertex="1" parent="1">
          <mxGeometry x="710" y="215" width="10" height="10" as="geometry" />
        </mxCell>
        <mxCell id="uW9ZdSilZdgCNZQ97aXZ-73" value="" style="endArrow=classic;html=1;rounded=0;fillColor=#d0cee2;strokeColor=#56517e;" edge="1" parent="1" source="uW9ZdSilZdgCNZQ97aXZ-54" target="uW9ZdSilZdgCNZQ97aXZ-72">
          <mxGeometry width="50" height="50" relative="1" as="geometry">
            <mxPoint x="630" y="380" as="sourcePoint" />
            <mxPoint x="800" y="380" as="targetPoint" />
          </mxGeometry>
        </mxCell>
        <mxCell id="uW9ZdSilZdgCNZQ97aXZ-72" value="" style="ellipse;whiteSpace=wrap;html=1;aspect=fixed;fillColor=#e1d5e7;strokeColor=#9673a6;" vertex="1" parent="1">
          <mxGeometry x="710" y="375" width="10" height="10" as="geometry" />
        </mxCell>
        <mxCell id="d04jcUyvBnx4OKBwQaZm-1" value="" style="endArrow=none;dashed=1;html=1;strokeWidth=1;rounded=0;entryX=0;entryY=0.5;entryDx=0;entryDy=0;fillColor=#b1ddf0;strokeColor=#10739e;" edge="1" parent="1" target="uW9ZdSilZdgCNZQ97aXZ-29">
          <mxGeometry width="50" height="50" relative="1" as="geometry">
            <mxPoint x="200" y="540" as="sourcePoint" />
            <mxPoint x="440" y="380" as="targetPoint" />
          </mxGeometry>
        </mxCell>
        <mxCell id="d04jcUyvBnx4OKBwQaZm-2" value="" style="endArrow=classic;dashed=1;html=1;strokeWidth=1;rounded=0;fillColor=#b1ddf0;strokeColor=#10739e;endFill=1;edgeStyle=orthogonalEdgeStyle;" edge="1" parent="1">
          <mxGeometry width="50" height="50" relative="1" as="geometry">
            <mxPoint x="520" y="540" as="sourcePoint" />
            <mxPoint x="800" y="540" as="targetPoint" />
          </mxGeometry>
        </mxCell>
        <mxCell id="d04jcUyvBnx4OKBwQaZm-3" value="" style="endArrow=none;dashed=1;html=1;strokeWidth=1;rounded=0;entryX=0;entryY=0.5;entryDx=0;entryDy=0;fillColor=#b1ddf0;strokeColor=#10739e;" edge="1" parent="1" target="uW9ZdSilZdgCNZQ97aXZ-28">
          <mxGeometry width="50" height="50" relative="1" as="geometry">
            <mxPoint x="200" y="460" as="sourcePoint" />
            <mxPoint x="440" y="380" as="targetPoint" />
          </mxGeometry>
        </mxCell>
      </root>
    </mxGraphModel>
  </diagram>
</mxfile>
